PathFileType	4	(X/Y/Z)	static.trc
DataRate	CameraRate	NumFrames	NumMarkers	Units	OrigDataRate	OrigDataStartFrame	OrigNumFrames
250.000000	250.000000	4	55	mm	250.000000	0	647
Frame#	Time	C7			RSH			LSH			MAN			T7			LARM			LELB			LFOREARM			LWR			RARM			RELB			RFOREARM			RWR			RASI			LASI			SACR			P1			P2			P3			LTHLP			LTHLD			LTHAP			LTHAD			LLEPI			LPAT			LMEPI			LTIAP			LTIAD			LTILAT			LLMAL			LMMAL			LHEEL			LMFS			LMFL			LP1MT			LTOE			LP5MT			RTHLP			RTHLD			RTHAP			RTHAD			RLEPI			RPAT			RMEPI			RTIAP			RTIAD			RTILAT			RLMAL			RMMAL			RHEEL			RMFS			RMFL			RP1MT			RTOE			RP5MT			
		X1	Y1	Z1	X2	Y2	Z2	X3	Y3	Z3	X4	Y4	Z4	X5	Y5	Z5	X6	Y6	Z6	X7	Y7	Z7	X8	Y8	Z8	X9	Y9	Z9	X10	Y10	Z10	X11	Y11	Z11	X12	Y12	Z12	X13	Y13	Z13	X14	Y14	Z14	X15	Y15	Z15	X16	Y16	Z16	X17	Y17	Z17	X18	Y18	Z18	X19	Y19	Z19	X20	Y20	Z20	X21	Y21	Z21	X22	Y22	Z22	X23	Y23	Z23	X24	Y24	Z24	X25	Y25	Z25	X26	Y26	Z26	X27	Y27	Z27	X28	Y28	Z28	X29	Y29	Z29	X30	Y30	Z30	X31	Y31	Z31	X32	Y32	Z32	X33	Y33	Z33	X34	Y34	Z34	X35	Y35	Z35	X36	Y36	Z36	X37	Y37	Z37	X38	Y38	Z38	X39	Y39	Z39	X40	Y40	Z40	X41	Y41	Z41	X42	Y42	Z42	X43	Y43	Z43	X44	Y44	Z44	X45	Y45	Z45	X46	Y46	Z46	X47	Y47	Z47	X48	Y48	Z48	X49	Y49	Z49	X50	Y50	Z50	X51	Y51	Z51	X52	Y52	Z52	X53	Y53	Z53	X54	Y54	Z54	X55	Y55	Z55	

1	0	-679.4077758789065	1568.579711914063	311.3028259277345	-639.2794189453127	1557.574340820313	475.5986022949221	-677.2093505859377	1554.933959960938	156.5253601074219	-529.699890136719	1481.512084960938	308.0953369140626	-739.0147705078127	1375.707397460938	318.3335571289064	-701.7071533203127	1378.075927734375	39.17554855346681	-723.8099365234377	1254.320922851563	-18.29391098022462	-679.8867797851565	1145.841430664063	-105.7477798461915	-661.5999755859377	1021.943237304688	-167.949691772461	-660.5181884765627	1388.119018554688	586.6677856445315	-692.0100097656252	1263.736328125	650.9881591796877	-651.4502563476565	1153.1337890625	735.0639648437502	-635.378112792969	1030.742919921875	798.3746948242192	-528.7622680664065	1085.715454101563	398.1346435546877	-554.3583984375002	1090.029418945313	182.5535278320313	-725.033386230469	1135.316284179688	316.8226623535157	-742.4431762695315	1109.254516601563	265.0519409179689	-731.5759887695315	1105.220581054688	370.7974243164064	-771.6251831054692	1052.28173828125	319.3163452148439	-665.6990966796877	798.4990234375005	106.1498794555665	-662.7243652343752	684.1785278320315	111.131935119629	-533.4365844726565	781.769897460938	170.8686523437501	-551.864685058594	671.765563964844	174.4706268310547	-658.049987792969	557.7730712890627	121.5712051391602	-575.3941650390627	553.7894287109377	182.2706909179688	-659.4390258789065	541.0215454101565	247.5442962646486	-643.4875488281252	381.7617187500001	187.8033447265626	-659.5056762695315	243.839324951172	180.9673461914063	-694.4552001953127	320.8141479492189	107.9559173583985	-701.441833496094	102.6488647460938	121.4700317382813	-680.2877197265627	113.1113739013672	214.4449310302736	-765.4678344726565	61.37675857543948	165.8867492675782	-600.3208618164065	94.40915679931643	169.6276092529297	-628.6148681640627	69.469352722168	107.1107177734376	-553.1076660156252	46.38457107543947	202.8058013916017	-497.598815917969	58.2651062011719	164.1162414550782	-576.8259887695315	35.77804183959962	78.51425933837893	-630.4046020507815	825.4686889648442	512.7739257812502	-634.2610473632815	711.7661132812502	508.0598449707034	-527.0561523437502	781.8244018554692	422.8789062500002	-548.234313964844	685.6298828125002	419.6601257324221	-652.1900024414065	560.017761230469	489.1387939453127	-584.0755615234377	550.5810546875002	425.6329040527346	-685.301208496094	543.9117431640627	366.0738830566407	-658.1995849609377	344.1253051757814	419.5201110839846	-672.931091308594	218.1858825683595	414.0777282714846	-693.6390380859377	338.9174194335939	506.3291931152346	-695.2232666015627	103.1656112670899	481.5526428222659	-684.3546142578127	112.8517456054688	387.7376403808596	-764.0009765625002	58.92968750000003	440.2003479003909	-592.1094360351565	97.57260894775396	432.1662902832034	-626.6375732421877	69.80693054199222	490.3369445800784	-554.2464599609377	49.2748718261719	388.4777832031252	-493.8357238769534	58.64088821411136	426.2037353515627	-569.847106933594	40.66814422607423	515.8470458984377	
2	0.004	-679.5111083984377	1568.702148437501	311.2326049804689	-639.645690917969	1557.481323242188	475.9314880371096	-677.332458496094	1554.918090820313	156.5417785644532	-529.7730712890627	1481.537963867188	308.0863647460939	-739.074890136719	1375.651000976563	318.3574829101564	-701.8150634765627	1378.064208984375	39.20373153686525	-723.9204711914065	1254.303833007813	-18.24883842468262	-680.0677490234377	1145.85400390625	-105.6160125732422	-661.736022949219	1021.919982910157	-167.8808288574219	-660.6072998046877	1388.070678710938	586.658142089844	-692.0177001953127	1263.736694335938	650.9805908203127	-651.4722900390627	1153.140014648438	735.0721435546877	-635.370544433594	1030.728515625	798.365844726563	-528.8306274414065	1085.730712890625	398.1436157226565	-554.4915771484377	1090.014038085938	182.5603790283204	-725.119323730469	1135.304077148438	316.8600158691407	-746.615173339844	1109.835205078125	265.4484252929689	-736.8321533203127	1105.986083984375	371.5907592773439	-771.7410278320317	1052.256225585938	319.3300170898439	-665.7750244140627	798.4885253906255	106.1107406616212	-662.8103637695315	684.1782836914065	111.1494445800782	-533.4631958007815	781.7778320312505	170.7274780273438	-551.9982910156252	671.8233642578127	174.5772705078126	-658.0884399414065	557.8031005859377	121.5251770019532	-575.4464111328127	553.9349365234377	182.250961303711	-659.4480590820315	541.0208129882815	247.5365600585939	-643.4429931640627	381.7609252929689	187.7240447998047	-659.5118408203127	243.8933715820314	181.0100097656251	-694.4871826171877	320.8153381347657	107.903907775879	-701.4466552734377	102.6500930786133	121.4559936523438	-680.2443847656252	113.1520233154297	214.5411529541017	-765.4536132812502	61.44618606567386	165.8802490234376	-600.3707275390627	94.30178833007815	169.6008605957032	-628.6336059570315	69.4565124511719	107.1646881103516	-553.122985839844	46.33871841430665	202.694061279297	-497.6757812500002	58.24550628662112	164.2775421142579	-576.8483886718752	35.76052856445314	78.53034210205081	-630.4235839843752	825.456176757813	512.7736816406252	-634.2835693359377	711.8035278320315	508.135681152344	-527.0643310546877	781.8303833007817	422.8725280761721	-548.3092041015627	685.6289062500002	419.6465148925784	-652.1939086914065	560.030212402344	489.1958923339846	-584.1123657226565	550.567810058594	425.5898437500002	-685.3577270507815	543.9034423828127	366.0745849609376	-658.2307128906252	344.0932006835939	419.536560058594	-672.893249511719	218.1825714111329	414.1026306152346	-693.6234130859377	338.9271240234376	506.3384704589846	-695.1166992187502	103.2241439819337	481.8408813476565	-684.3284301757815	112.844223022461	387.725036621094	-765.3920898437502	59.57827377319339	441.243347167969	-592.0728759765627	97.59246063232428	432.1166076660159	-629.1560668945315	69.74141693115237	491.0877990722659	-554.2366943359377	49.23116683959964	388.5063781738284	-493.8292541503909	58.65711975097659	426.2406005859377	-569.8204345703127	40.67506027221681	515.8897705078127	
3	0.008	-684.3596191406252	1570.374755859376	312.5487365722657	-639.6929321289065	1557.462768554688	475.9133911132815	-677.4260253906252	1554.912109375001	156.5583648681641	-529.849060058594	1481.520629882813	308.0352783203126	-739.133483886719	1375.659301757813	318.4158325195314	-701.8940429687502	1378.059936523438	39.21038818359376	-724.0268554687502	1254.271362304688	-18.19122314453126	-680.171325683594	1145.81591796875	-105.5904693603516	-661.8258056640627	1021.907165527344	-167.8084411621094	-660.5982666015627	1388.060546875	586.6729125976565	-692.057556152344	1263.693481445313	651.0092773437502	-651.484313964844	1153.068969726563	735.0303955078127	-635.3777465820315	1030.681640625	798.3269042968755	-528.903991699219	1085.699462890625	398.1314697265627	-554.5734863281252	1090.033325195313	182.5817260742188	-725.1731567382815	1135.297729492188	316.9284667968751	-746.6966552734377	1109.807861328125	265.4788208007814	-737.0583496093752	1106.011474609375	371.6162109375001	-771.808959960938	1052.266357421875	319.372039794922	-665.853698730469	798.488159179688	106.1107940673829	-662.8552246093752	684.180114746094	111.1757812500001	-533.5871582031252	781.8296508789067	170.8721771240235	-552.0937500000002	671.894470214844	174.6810455322266	-658.1036376953127	557.825378417969	121.6184082031251	-575.5364379882815	554.1085205078127	182.2875061035157	-659.4664306640627	541.067810058594	247.5893707275392	-643.488464355469	381.7485961914064	187.7812652587891	-659.5323486328127	243.8200988769532	180.9214630126954	-694.4864501953127	320.8276672363282	107.9011764526368	-701.5039062500002	102.6345901489258	121.4679946899415	-680.261657714844	113.2022094726563	214.5812377929689	-765.4329833984377	61.39279937744143	165.7767486572266	-600.3575439453127	94.35523986816409	169.6083679199219	-628.6030273437502	69.45623016357425	107.1576614379883	-553.0998535156252	46.38895797729494	202.8188476562501	-497.6166076660159	58.25416564941409	164.0824737548829	-576.739440917969	35.81187438964845	78.5090026855469	-630.4317626953127	825.4814453125005	512.823669433594	-634.295349121094	711.7777099609377	508.117858886719	-527.1279296875002	781.8341674804692	422.8832092285159	-548.3037719726565	685.6457519531252	419.650085449219	-652.177429199219	560.0185546875002	489.1988220214846	-584.1199340820315	550.5899047851565	425.5634765625002	-685.3735351562502	543.9039306640627	366.0726928710939	-658.2352294921877	344.0599060058595	419.5442199707034	-672.9201660156252	218.1678924560548	414.1053466796877	-693.6985473632815	338.9012145996095	506.3443603515627	-694.9537353515627	103.3531188964844	481.9936218261721	-684.3513793945315	112.8367996215821	387.7540283203127	-765.386413574219	59.52514266967776	441.2398071289065	-592.0968017578127	97.56156158447271	432.0679321289065	-629.190612792969	69.718620300293	491.028747558594	-554.2141723632815	49.29404067993167	388.4823303222659	-493.8353576660159	58.69971466064456	426.209411621094	-569.8378906250002	40.67882156372072	515.8645019531252	
4	0.012	-684.4317016601565	1570.329956054688	312.515838623047	-639.7574462890627	1557.459228515626	475.930847167969	-677.4750976562502	1554.911010742188	156.5407104492188	-529.9738769531252	1481.532958984375	308.0999145507814	-739.192810058594	1375.637451171875	318.369598388672	-701.989929199219	1378.0546875	39.24237442016603	-724.1245727539065	1254.283203125	-18.17321586608887	-680.296569824219	1145.823852539063	-105.5229568481446	-661.8936157226565	1021.887451171875	-167.8249816894532	-660.6611328125002	1388.054321289063	586.685729980469	-692.0842895507815	1263.689697265625	650.981628417969	-651.4968872070315	1153.053466796875	735.0161132812502	-635.3718872070315	1030.659912109375	798.3039550781255	-528.9704589843752	1085.747192382813	398.1384887695315	-554.663024902344	1090.025390625	182.6021575927735	-725.2788085937502	1135.284423828125	316.918182373047	-746.7351074218752	1109.81298828125	265.5602416992189	-731.711608886719	1105.169555664063	370.896453857422	-771.8645629882817	1052.246337890625	319.4715270996095	-665.9322509765627	798.5043945312505	106.1236267089844	-662.9208984375002	684.1768188476565	111.2007369995118	-533.6464843750002	781.8748168945317	170.8627471923829	-552.223571777344	671.9278564453127	174.7107543945313	-658.1607666015627	557.8582153320315	121.5309295654297	-575.6517333984377	554.271179199219	182.3578491210938	-659.516296386719	541.0891113281252	247.591033935547	-643.4855957031252	381.7381286621095	187.7901000976563	-659.6043701171877	243.7992095947267	181.1637573242188	-694.4910278320315	320.8337402343751	107.9123764038087	-701.470886230469	102.6215972900391	121.4627990722657	-680.2662353515627	113.1361312866212	214.4743804931642	-765.455261230469	61.39178085327151	165.8775024414063	-600.3318481445315	94.42631530761722	169.5693359375001	-628.6023559570315	69.46290588378909	107.1359329223633	-553.1815185546877	46.33583450317384	202.6990203857423	-497.6988830566409	58.28190994262698	164.2374267578126	-576.828063964844	35.80018997192384	78.5666198730469	-630.503601074219	825.460083007813	512.8496704101565	-634.3100585937502	711.7774658203127	508.1491699218752	-527.158630371094	781.8391723632817	422.8258972167971	-548.3891601562502	685.6087036132815	419.6609802246096	-652.1859130859377	560.0691528320315	489.3329772949221	-584.1392211914065	550.5927734375002	425.5628051757815	-685.392517089844	543.9041748046877	366.0918884277345	-658.2092285156252	344.1088867187501	419.5422668457034	-672.9020996093752	218.154754638672	414.0630798339846	-693.6834106445315	338.8733215332032	506.352233886719	-695.0144653320315	103.3046112060547	481.9230041503909	-684.1967773437502	112.8722457885743	387.619812011719	-765.3887939453127	59.568229675293	441.2429199218752	-592.1540527343752	97.6223983764649	432.1556396484377	-629.218444824219	69.71952819824222	491.0722656250002	-554.242858886719	49.28135681152347	388.5210266113284	-493.8708190917971	58.70035934448245	426.213806152344	-569.8325805664065	40.66841506958009	515.886169433594	
